<svg id="Layer_1" data-name="Layer 1" xmlns="http://www.w3.org/2000/svg" viewBox="0 0 864 864"><defs><style>.cls-1,.cls-3{fill:#fbfbf4;}.cls-2{fill:none;stroke:#fbfbf4;stroke-miterlimit:10;stroke-width:0.58px;}.cls-3{font-size:14px;font-family:FuturaPT-Book, Futura PT;}.cls-4{letter-spacing:-0.01em;}.cls-5{letter-spacing:0.03em;}.cls-6{letter-spacing:-0.04em;}.cls-7{letter-spacing:0em;}</style></defs><title>cc-nav</title><path class="cls-1" d="M588.55,346a8.37,8.37,0,1,0,8.37,8.37A8.37,8.37,0,0,0,588.55,346Zm0,15.78a7.41,7.41,0,1,1,7.41-7.41A7.41,7.41,0,0,1,588.55,361.79Z"/><path class="cls-1" d="M579.18,356.46l-.06-.27-3.52-3.52-.16.06Z"/><path class="cls-1" d="M579.95,358.63l-.19-.4L574.58,353l-.16.06Z"/><path class="cls-1" d="M579.1,356c0-.1,0-.21,0-.31l-3.15-3.15-.19.07Z"/><polygon class="cls-1" points="576.2 356.32 576.53 356.44 573.52 353.43 573.37 353.48 576.2 356.32"/><path class="cls-1" d="M579.67,358l-.14-.36L574.83,353l-.16.06Z"/><path class="cls-1" d="M579,355.58c0-.08,0-.16,0-.24l-2.85-2.85-.16.06Z"/><path class="cls-1" d="M579.31,357l-.09-.33-3.86-3.86-.18.06Z"/><path class="cls-1" d="M579,355.2c0-.09,0-.18,0-.27l-2.55-2.55-.18.06Z"/><path class="cls-1" d="M579,353.77c0-.08,0-.15,0-.23L577.46,352l-.18.06Z"/><path class="cls-1" d="M577.55,352l1.45,1.45c0-.06,0-.13,0-.19l-1.34-1.34v0Z"/><path class="cls-1" d="M579,354.1c0-.07,0-.14,0-.21l-1.78-1.78-.16.06Z"/><path class="cls-1" d="M579,354.45s0,0,0-.06,0-.1,0-.16l-2-2-.16.06Z"/><path class="cls-1" d="M579,354.8c0-.07,0-.15,0-.22l-2.28-2.28-.16.06Z"/><path class="cls-1" d="M580.43,359.49c-.12-.19-.24-.39-.34-.59l-5.76-5.76-.18.06Z"/><path class="cls-1" d="M577.85,357.76l.13.34,6.73,6.73.31.1Z"/><path class="cls-1" d="M578.07,358.32l.19.44,5.86,5.86.4.15Z"/><path class="cls-1" d="M579,353.12c0-.07,0-.15,0-.22l-1.32-1.32,0,.2Z"/><path class="cls-1" d="M578.38,359l.22.43,4.91,4.91.4.18Z"/><polygon class="cls-1" points="576.73 356.51 577.12 356.65 573.8 353.33 573.62 353.39 576.73 356.51"/><path class="cls-1" d="M583.06,362.25a9.64,9.64,0,0,1-1.3-1.08l4,4,.27.06Z"/><path class="cls-1" d="M577.67,357.2l.12.36,7.43,7.43.34.09Z"/><polygon class="cls-1" points="587.69 369.59 588.94 370.84 589 370.66 587.54 369.2 587.69 369.59"/><polygon class="cls-1" points="587.9 370.14 588.84 371.08 588.9 370.93 587.77 369.8 587.9 370.14"/><path class="cls-1" d="M578.75,359.71q.15.27.32.55l3.66,3.66.51.28Z"/><path class="cls-1" d="M577.32,356.72l.24.09.05.2,4.15,4.15a9.64,9.64,0,0,1-1.08-1.3L574,353.24l-.16.06Z"/><path class="cls-1" d="M579.92,361.44l1.7,1.7q.37.29.77.56l-3.08-3.08C579.5,360.9,579.7,361.17,579.92,361.44Z"/><polygon class="cls-1" points="587.47 368.99 589.04 370.57 589.1 370.41 587.33 368.65 587.47 368.99"/><path class="cls-1" d="M579.46,357.45l-.1-.31-4.27-4.27-.16.06Z"/><path class="cls-1" d="M580.59,349l.1-.14-1.12-1.12-.11.14Z"/><path class="cls-1" d="M580.46,349.23l.08-.13L579.41,348l-.09.12Z"/><path class="cls-1" d="M580.07,349.9l.08-.14L579,348.59l-.09.14Z"/><path class="cls-1" d="M580.32,349.46l.09-.15-1.14-1.14-.1.14Z"/><path class="cls-1" d="M580.19,349.67l.08-.14-1.15-1.15-.09.13Z"/><path class="cls-1" d="M580.89,348.6l.11-.14-1.1-1.1-.11.13Z"/><path class="cls-1" d="M580.75,348.8l.09-.12-1.11-1.11-.1.12Z"/><path class="cls-1" d="M580.77,346.48l-.11.1,1.06,1.06.11-.11Z"/><path class="cls-1" d="M581.54,347.84l.12-.13-1.07-1.07-.12.12Z"/><path class="cls-1" d="M581.89,347.48A9.59,9.59,0,0,1,595.45,361l1.06,1.06a9.59,9.59,0,0,0,2.91-5.28l6.82-2.45-6.7-2.43s-1.58-7-8.46-8.38l-2.53-6.65h0L586,343.48a14.47,14.47,0,0,0-5.18,2.94Z"/><path class="cls-1" d="M581.21,348.21l.1-.12L580.23,347l-.11.11Z"/><path class="cls-1" d="M581.37,348l.1-.11-1.07-1.07-.11.11Z"/><path class="cls-1" d="M581.06,348.39l.09-.12-1.09-1.09-.1.11Z"/><path class="cls-1" d="M579.72,350.62l.07-.15-1.2-1.2-.07.14Z"/><path class="cls-1" d="M578.36,349.73l-.07.15,1.23,1.23.06-.15Z"/><path class="cls-1" d="M578.26,350l-.07.17,1.25,1.25.06-.18Z"/><path class="cls-1" d="M579.32,351.75l-1.27-1.27-.06.17,1.27,1.27Z"/><path class="cls-1" d="M579.21,352.2l0-.17L578,350.75l0,.16Z"/><path class="cls-1" d="M579.14,352.51l0-.2L577.89,351l-.05.19Z"/><path class="cls-1" d="M579.4,351.49l-1.25-1.25-.06.16,1.26,1.26Z"/><path class="cls-1" d="M579.83,350.38l.08-.17L578.72,349l-.09.16Z"/><path class="cls-1" d="M592.55,363.1l1.08,1.08.16-.09L592.72,363Z"/><path class="cls-1" d="M592.31,363.21l1.09,1.09.14-.07-1.09-1.09Z"/><path class="cls-1" d="M579.62,350.87l.06-.16-1.21-1.21-.07.15Z"/><path class="cls-1" d="M579.09,352.8l0-.18-1.31-1.31,0,.17Z"/><path class="cls-1" d="M580,350.13,580,350l-1.18-1.18-.08.13Z"/><path class="cls-1" d="M592.8,363l1.07,1.07L594,364l-1.06-1.06Z"/><path class="cls-1" d="M590.9,363.68l-.17,0L592,365l.15-.06Z"/><path class="cls-1" d="M591.18,363.61l-.17,0,1.21,1.21.16-.07Z"/><path class="cls-1" d="M590.63,363.75l-.2,0,1.27,1.27.18-.07Z"/><path class="cls-1" d="M590.32,363.81l-.18,0,1.31,1.31.16-.06Z"/><path class="cls-1" d="M591.72,363.43l-.18.06,1.15,1.15.17-.08Z"/><path class="cls-1" d="M591.44,363.53l-.16,0,1.18,1.18.15-.07Z"/><path class="cls-1" d="M589.69,363.9l-.19,0,1.51,1.51.06-.15Z"/><path class="cls-1" d="M588.7,364h-.22l2.23,2.23.06-.16Z"/><path class="cls-1" d="M588.35,364h-.22l2.49,2.49.06-.15Z"/><path class="cls-1" d="M590,363.86l-.22,0,1.36,1.36.19-.06Z"/><path class="cls-1" d="M589,364h-.21l2,2,.06-.15Z"/><path class="cls-1" d="M592,363.34l-.15.06,1.13,1.13.14-.07Z"/><path class="cls-1" d="M589.38,363.94l-.23,0,1.75,1.75.07-.18Z"/><path class="cls-1" d="M594.46,361.93l-.14.11,1,1,.14-.11Z"/><path class="cls-1" d="M594.84,361.62l-.12.1,1,1,.12-.1Z"/><path class="cls-1" d="M594.66,361.78l-.12.09,1,1,.12-.09Z"/><path class="cls-1" d="M595,361.46l-.11.1,1,1,.12-.1Z"/><path class="cls-1" d="M592.22,363.24l-.16.06,1.11,1.11.15-.07Z"/><path class="cls-1" d="M588,364l-.27,0,2.78,2.78.07-.18Z"/><path class="cls-1" d="M595.39,361.1l-.11.11,1.05,1.05.11-.1Z"/><path class="cls-1" d="M595.22,361.27l-.13.12,1,1,.13-.12Z"/><path class="cls-1" d="M593.39,362.66l-.14.08,1.05,1.05.13-.08Z"/><path class="cls-1" d="M593.62,362.52l-.15.09,1,1,.15-.1Z"/><path class="cls-1" d="M594.25,362.09l-.12.09,1,1,.12-.09Z"/><path class="cls-1" d="M593,362.86l1.06,1.06.14-.08-1.05-1.05Z"/><path class="cls-1" d="M593.83,362.39l-.13.08,1,1,.13-.09Z"/><path class="cls-1" d="M594.05,362.23l-.14.1,1,1,.14-.1Z"/><polygon class="cls-1" points="586.03 365.22 586.16 365.56 589.63 369.03 589.69 368.88 586.03 365.22"/><polygon class="cls-1" points="571.2 354.26 571.02 354.32 571.2 354.51 571.59 354.65 571.2 354.26"/><polygon class="cls-1" points="570.92 354.36 570.86 354.38 571 354.44 570.92 354.36"/><polygon class="cls-1" points="572.12 354.84 571.45 354.17 571.29 354.23 571.79 354.72 572.12 354.84"/><polygon class="cls-1" points="588.61 371.68 588.41 371.47 588.55 371.84 588.55 371.85 588.61 371.68"/><path class="cls-1" d="M587.59,363.93l-.24,0,3.07,3.07.06-.15Z"/><polygon class="cls-1" points="587.98 370.35 588.12 370.71 588.74 371.34 588.81 371.18 587.98 370.35"/><polygon class="cls-1" points="572.32 354.92 572.67 355.04 571.71 354.08 571.54 354.14 572.32 354.92"/><polygon class="cls-1" points="573.99 355.52 574.33 355.64 572.49 353.8 572.33 353.86 573.99 355.52"/><polygon class="cls-1" points="587.25 368.44 589.13 370.32 589.2 370.16 587.12 368.08 587.25 368.44"/><polygon class="cls-1" points="575.08 355.91 575.41 356.03 573 353.62 572.84 353.67 575.08 355.91"/><polygon class="cls-1" points="574.53 355.71 574.88 355.84 572.74 353.71 572.58 353.76 574.53 355.71"/><polygon class="cls-1" points="572.87 355.11 573.21 355.23 571.96 353.99 571.8 354.04 572.87 355.11"/><polygon class="cls-1" points="573.41 355.31 573.79 355.45 572.23 353.89 572.05 353.95 573.41 355.31"/><polygon class="cls-1" points="588.2 370.92 588.33 371.26 588.65 371.58 588.71 371.43 588.2 370.92"/><path class="cls-1" d="M585.79,363.57l-.31-.1L590,368l.06-.15Z"/><path class="cls-1" d="M586.3,363.71l-.33-.09,4.14,4.14.07-.18Z"/><path class="cls-1" d="M585.28,363.41l-.36-.14,5,5,.06-.16Z"/><path class="cls-1" d="M584.7,363.17l-.4-.19,5.53,5.53.06-.15Z"/><path class="cls-1" d="M587.2,363.88l-.31,0,3.42,3.42.07-.19Z"/><path class="cls-1" d="M586.74,363.8l-.27-.06,3.75,3.75.06-.15Z"/><polygon class="cls-1" points="586.68 366.93 586.83 367.32 589.33 369.82 589.39 369.64 586.68 366.93"/><polygon class="cls-1" points="586.91 367.53 587.04 367.87 589.23 370.07 589.29 369.91 586.91 367.53"/><polygon class="cls-1" points="586.47 366.38 586.6 366.72 589.43 369.55 589.49 369.39 586.47 366.38"/><polygon class="cls-1" points="575.61 356.11 576 356.24 573.27 353.52 573.09 353.58 575.61 356.11"/><polygon class="cls-1" points="586.24 365.77 586.39 366.17 589.53 369.3 589.59 369.12 586.24 365.77"/><path class="cls-1" d="M584,362.85l-.59-.34,6.28,6.28.07-.18Z"/><path class="cls-2" d="M599.54,351.95s-1.58-7-8.46-8.38l-2.53-6.65h0L586,343.48s-7.18,2-8.35,8.45l-6.82,2.45,6.7,2.43s1.58,7,8.46,8.38l2.53,6.65h0l2.53-6.57s7.18-2,8.35-8.45l6.82-2.45Zm-11,12a9.59,9.59,0,1,1,9.59-9.59A9.59,9.59,0,0,1,588.55,364Z"/><path class="cls-2" d="M588.55,346a8.37,8.37,0,1,0,8.37,8.37A8.37,8.37,0,0,0,588.55,346Zm0,15.78a7.41,7.41,0,1,1,7.41-7.41A7.41,7.41,0,0,1,588.55,361.79Z"/><path class="cls-1" d="M603.52,367l-24.4-24.93a17.28,17.28,0,0,0-4.68-3.28s-.56,7.75,13.73,22l1.57-1.54.53.54.58-.57s4.07,5.12,5.84,6.28c.58.38,1.9.75,2.28,1.19s-.34,1.69.34,2.34a2.35,2.35,0,0,0,1.5.67,2.48,2.48,0,0,0,2-.52C603.26,368.78,603.55,368.4,603.52,367Zm-2.84,2a.5.5,0,1,1,.55-.44A.5.5,0,0,1,600.67,369Z"/><text class="cls-3" transform="translate(614.83 359.28)">C<tspan class="cls-4" x="9.04" y="0">h</tspan><tspan x="15.48" y="0">e</tspan><tspan class="cls-5" x="22.22" y="0">f</tspan><tspan class="cls-6" x="26.01" y="0">’</tspan><tspan class="cls-7" x="29.12" y="0">s Compass</tspan></text></svg>