<svg id="Layer_1" data-name="Layer 1" xmlns="http://www.w3.org/2000/svg" viewBox="0 0 864 864"><defs><style>.cls-1{fill:#fbfbf4;}.cls-2{fill:none;stroke:#fbfbf4;stroke-miterlimit:10;stroke-width:2.23px;}</style></defs><title>cc-logo</title><path class="cls-1" d="M406.81,344.75a56.45,56.45,0,1,0,56.45,56.45A56.45,56.45,0,0,0,406.81,344.75Zm0,106.42a50,50,0,1,1,50-50A50,50,0,0,1,406.81,451.17Z"/><path class="cls-1" d="M343.67,415.21q-.2-.9-.37-1.81l-23.71-23.71-1.06.38Z"/><path class="cls-1" d="M348.83,429.86q-.66-1.33-1.26-2.69l-35-35-1.06.38Z"/><path class="cls-1" d="M343.11,412.34c-.12-.69-.23-1.39-.33-2.09L321.51,389l-1.29.46Z"/><polygon class="cls-1" points="323.55 414.24 325.8 415.05 305.49 394.75 304.44 395.13 323.55 414.24"/><path class="cls-1" d="M346.93,425.66c-.33-.81-.66-1.63-1-2.45l-31.64-31.64-1.1.4Z"/><path class="cls-1" d="M342.65,409.26c-.07-.55-.14-1.09-.2-1.64l-19.24-19.24-1.06.38Z"/><path class="cls-1" d="M344.51,418.57q-.31-1.11-.58-2.23l-26-26-1.21.44Z"/><path class="cls-1" d="M342.38,406.69c0-.59-.1-1.19-.14-1.79l-17.18-17.18-1.21.44Z"/><path class="cls-1" d="M342.28,397.09c0-.51.07-1,.12-1.53l-10.34-10.34-1.21.44Z"/><path class="cls-1" d="M332.69,385l9.77,9.77c0-.43.1-.86.15-1.28l-9.06-9.06-.06.29Z"/><path class="cls-1" d="M342.18,399.3c0-.47,0-.94,0-1.4l-12-12-1.06.38Z"/><path class="cls-1" d="M342.14,401.63c0-.14,0-.28,0-.43,0-.35,0-.7,0-1.06L328.5,386.49l-1.1.4Z"/><path class="cls-1" d="M342.2,404c0-.49,0-1,0-1.48l-15.41-15.41-1.06.38Z"/><path class="cls-1" d="M352,435.6c-.81-1.29-1.59-2.61-2.31-4L310.9,392.8l-1.21.44Z"/><path class="cls-1" d="M334.7,424c.26.73.56,1.5.88,2.32L381,471.68q1,.35,2.12.68Z"/><path class="cls-1" d="M336.17,427.73c.39.94.82,1.92,1.29,2.94L377,470.18c.88.36,1.77.71,2.69,1Z"/><path class="cls-1" d="M342.71,392.69c.06-.49.12-1,.19-1.47L334,382.3c-.1.45-.19.92-.28,1.38Z"/><path class="cls-1" d="M338.24,432.31q.69,1.42,1.47,2.91l33.1,33.09q1.31.64,2.68,1.24Z"/><polygon class="cls-1" points="327.16 415.54 329.76 416.49 307.35 394.08 306.13 394.52 327.16 415.54"/><path class="cls-1" d="M369.83,454.25a65,65,0,0,1-8.74-7.3l26.65,26.65,1.85.41Z"/><path class="cls-1" d="M333.43,420.16c.21.7.47,1.52.79,2.46l50.1,50.1q1.12.32,2.27.61Z"/><polygon class="cls-1" points="401.05 503.76 409.43 512.14 409.89 510.94 400.04 501.1 401.05 503.76"/><polygon class="cls-1" points="402.47 507.48 408.79 513.8 409.19 512.76 401.58 505.16 402.47 507.48"/><path class="cls-1" d="M340.75,437.13q1,1.81,2.18,3.68l24.7,24.7q1.66,1,3.41,1.91Z"/><path class="cls-1" d="M331.12,417l1.6.58s.11.49.36,1.38l28,28a65,65,0,0,1-7.3-8.74l-44.7-44.7-1.06.38Z"/><path class="cls-1" d="M348.61,448.8l11.48,11.48q2.47,2,5.22,3.78L344.55,443.3C345.78,445.12,347.14,447,348.61,448.8Z"/><polygon class="cls-1" points="399.51 499.7 410.13 510.32 410.53 509.28 398.63 497.38 399.51 499.7"/><path class="cls-1" d="M345.53,421.9c-.24-.7-.47-1.41-.68-2.12L316,391l-1.06.38Z"/><path class="cls-1" d="M353.18,365c.22-.33.46-.65.69-1l-7.55-7.55-.73.93Z"/><path class="cls-1" d="M352.28,366.44l.56-.88-7.62-7.62-.61.82Z"/><path class="cls-1" d="M349.63,371l.52-1-7.84-7.84-.58.92Z"/><path class="cls-1" d="M351.31,368c.21-.34.42-.68.63-1l-7.69-7.69-.68,1Z"/><path class="cls-1" d="M350.47,369.45l.53-.91-7.77-7.77-.57.86Z"/><path class="cls-1" d="M355.2,362.22c.24-.31.48-.62.73-.92l-7.41-7.41-.77.88Z"/><path class="cls-1" d="M354.23,363.56c.2-.28.39-.56.6-.84l-7.47-7.47-.65.79Z"/><path class="cls-1" d="M354.35,347.92l-.75.69,7.17,7.17.72-.72Z"/><path class="cls-1" d="M359.55,357.07l.81-.85L353.16,349l-.84.81Z"/><path class="cls-1" d="M361.94,354.64a64.66,64.66,0,0,1,91.42,91.42l7.16,7.16c9-8.61,16.83-20.22,19.6-35.58l46-16.51-45.2-16.35s-10.64-47-57.05-56.5l-17-44.85v-.07l-17,44.34a97.6,97.6,0,0,0-35,19.8Z"/><path class="cls-1" d="M357.35,359.54l.7-.8-7.29-7.29-.73.77Z"/><path class="cls-1" d="M358.45,358.28l.68-.76-7.23-7.23-.72.72Z"/><path class="cls-1" d="M356.31,360.81c.21-.27.42-.54.64-.8l-7.34-7.34-.69.75Z"/><path class="cls-1" d="M347.32,375.8c.14-.33.3-.66.45-1l-8.1-8.1-.49,1Z"/><path class="cls-1" d="M338.13,369.83c-.15.33-.29.67-.44,1l8.31,8.31c.13-.35.27-.69.4-1Z"/><path class="cls-1" d="M337.43,371.43c-.16.39-.32.78-.48,1.17l8.41,8.41q.2-.62.42-1.23Z"/><path class="cls-1" d="M344.62,383.45l-8.54-8.54c-.13.37-.25.75-.38,1.12l8.59,8.59C344.39,384.23,344.51,383.84,344.62,383.45Z"/><path class="cls-1" d="M343.84,386.47c.09-.39.17-.78.27-1.17l-8.62-8.62c-.12.36-.23.73-.34,1.1Z"/><path class="cls-1" d="M343.38,388.54c.09-.46.19-.91.29-1.36l-8.73-8.73c-.12.43-.24.86-.35,1.3Z"/><path class="cls-1" d="M345.14,381.67l-8.44-8.44c-.13.35-.26.7-.39,1.05l8.5,8.5C344.92,382.41,345,382,345.14,381.67Z"/><path class="cls-1" d="M348,374.21c.17-.38.34-.76.52-1.13l-8-8-.59,1.06Z"/><path class="cls-1" d="M433.8,460l7.28,7.28,1.06-.59-7.21-7.21C434.56,459.64,434.18,459.8,433.8,460Z"/><path class="cls-1" d="M432.21,460.69l7.37,7.37.94-.5-7.32-7.32Z"/><path class="cls-1" d="M346.64,377.48c.14-.36.28-.72.42-1.07l-8.17-8.17c-.16.33-.32.67-.48,1Z"/><path class="cls-1" d="M343,390.49c.07-.41.14-.81.22-1.22l-8.84-8.84c-.1.38-.19.77-.28,1.16Z"/><path class="cls-1" d="M348.85,372.5c.16-.32.32-.63.49-1l-7.93-7.93-.53.91Z"/><path class="cls-1" d="M435.51,459.16l7.2,7.2.91-.53-7.16-7.16Z"/><path class="cls-1" d="M422.7,463.9l-1.17.27,8.34,8.34,1-.41Z"/><path class="cls-1" d="M424.56,463.39l-1.17.33,8.13,8.13,1.05-.45Z"/><path class="cls-1" d="M420.83,464.33l-1.36.29,8.58,8.58,1.2-.45Z"/><path class="cls-1" d="M418.74,464.76l-1.22.22,8.84,8.84,1.06-.38Z"/><path class="cls-1" d="M428.22,462.23l-1.23.42,7.77,7.77,1.13-.53Z"/><path class="cls-1" d="M426.34,462.87l-1.11.33,7.94,7.94,1-.44Z"/><path class="cls-1" d="M414.54,465.4l-1.28.15,10.17,10.17.4-1Z"/><path class="cls-1" d="M407.87,465.85l-1.06,0h-.43l15,15,.42-1.08Z"/><path class="cls-1" d="M405.49,465.84l-1.48,0,16.78,16.78.4-1Z"/><path class="cls-1" d="M416.78,465.11c-.49.08-1,.13-1.47.19l9.15,9.15,1.25-.41Z"/><path class="cls-1" d="M410.11,465.79c-.46,0-.94,0-1.4,0l13.38,13.38.4-1Z"/><path class="cls-1" d="M429.91,461.61l-1,.4,7.61,7.61,1-.47Z"/><path class="cls-1" d="M412.46,465.62l-1.53.12,11.81,11.81.46-1.19Z"/><path class="cls-1" d="M446.71,452.08l-.92.73,7,7,.94-.71Z"/><path class="cls-1" d="M449.27,450l-.8.7,7,7,.82-.68Z"/><path class="cls-1" d="M448,451.06l-.8.64,7,7,.8-.63Z"/><path class="cls-1" d="M450.49,448.88l-.76.68,7,7,.78-.66Z"/><path class="cls-1" d="M431.6,460.94l-1.07.42,7.49,7.49,1-.5Z"/><path class="cls-1" d="M403.11,465.76c-.6,0-1.19-.09-1.79-.14l18.77,18.77.46-1.19Z"/><path class="cls-1" d="M452.94,446.51l-.72.72,7.11,7.11.75-.69Z"/><path class="cls-1" d="M451.78,447.66l-.85.81,7.07,7.07.87-.78Z"/><path class="cls-1" d="M439.47,457l-.91.53,7.08,7.08.89-.55Z"/><path class="cls-1" d="M441,456.07l-1,.63,7,7,1-.65Z"/><path class="cls-1" d="M445.29,453.18l-.84.6,7,7,.83-.61Z"/><path class="cls-1" d="M437,458.38l7.13,7.13.94-.56L438,457.86Z"/><path class="cls-1" d="M442.45,455.17l-.88.56,7,7,.86-.58Z"/><path class="cls-1" d="M443.94,454.14c-.32.23-.64.47-1,.69l7,7,1-.68Z"/><polygon class="cls-1" points="389.85 474.27 390.73 476.59 414.11 499.97 414.51 498.93 389.85 474.27"/><polygon class="cls-1" points="289.83 400.37 288.62 400.81 289.85 402.05 292.44 402.98 289.83 400.37"/><polygon class="cls-1" points="287.98 401.04 287.52 401.2 288.5 401.56 287.98 401.04"/><polygon class="cls-1" points="296.05 404.29 291.53 399.76 290.47 400.14 293.8 403.47 296.05 404.29"/><polygon class="cls-1" points="407.26 517.8 405.86 516.4 406.81 518.9 406.81 518.97 407.26 517.8"/><path class="cls-1" d="M400.38,465.56c-.55-.05-1.09-.13-1.64-.2l20.71,20.71.4-1Z"/><polygon class="cls-1" points="403 508.88 403.91 511.28 408.14 515.51 408.55 514.43 403 508.88"/><polygon class="cls-1" points="297.41 404.78 299.75 405.63 293.26 399.14 292.16 399.53 297.41 404.78"/><polygon class="cls-1" points="308.67 408.85 310.92 409.67 298.51 397.25 297.45 397.63 308.67 408.85"/><polygon class="cls-1" points="398.1 495.98 410.77 508.65 411.19 507.57 397.18 493.56 398.1 495.98"/><polygon class="cls-1" points="315.99 411.5 318.24 412.32 301.94 396.02 300.89 396.4 315.99 411.5"/><polygon class="cls-1" points="312.28 410.16 314.63 411.01 300.25 396.63 299.14 397.03 312.28 410.16"/><polygon class="cls-1" points="301.11 406.12 303.36 406.94 294.96 398.53 293.9 398.91 301.11 406.12"/><polygon class="cls-1" points="304.72 407.43 307.31 408.36 296.81 397.86 295.6 398.3 304.72 407.43"/><polygon class="cls-1" points="404.44 512.68 405.33 515 407.5 517.17 407.9 516.13 404.44 512.68"/><path class="cls-1" d="M388.23,463.16c-.71-.21-1.42-.44-2.12-.68l30.63,30.63.4-1Z"/><path class="cls-1" d="M391.67,464.08q-1.12-.27-2.23-.58l27.94,27.94.46-1.19Z"/><path class="cls-1" d="M384.8,462c-.83-.3-1.64-.62-2.45-1l33.74,33.74.42-1.08Z"/><path class="cls-1" d="M380.84,460.44q-1.36-.6-2.69-1.26l37.3,37.3.4-1Z"/><path class="cls-1" d="M397.75,465.23c-.7-.1-1.39-.21-2.09-.33L418.73,488l.49-1.27Z"/><path class="cls-1" d="M394.61,464.71l-1.81-.37,25.29,25.29.4-1Z"/><polygon class="cls-1" points="394.22 485.78 395.24 488.44 412.07 505.28 412.53 504.08 394.22 485.78"/><polygon class="cls-1" points="395.77 489.84 396.65 492.16 411.43 506.94 411.83 505.9 395.77 489.84"/><polygon class="cls-1" points="392.81 482.06 393.69 484.38 412.77 503.46 413.17 502.42 392.81 482.06"/><polygon class="cls-1" points="319.6 412.81 322.19 413.75 303.8 395.36 302.58 395.79 319.6 412.81"/><polygon class="cls-1" points="391.26 477.99 392.28 480.66 413.41 501.79 413.87 500.59 391.26 477.99"/><path class="cls-1" d="M376.37,458.27c-1.35-.72-2.67-1.5-4-2.31l42.34,42.34.46-1.19Z"/><path class="cls-2" d="M480.9,384.78s-10.64-47-57.05-56.5l-17-44.85h0l-17,44.27s-48.44,13.53-56.28,57l-46,16.51,45.2,16.35s10.64,47,57.05,56.5l17,44.85h0l17-44.27s48.44-13.53,56.28-57l46-16.51Zm-74.09,81.1a64.68,64.68,0,1,1,64.68-64.68A64.68,64.68,0,0,1,406.81,465.88Z"/><path class="cls-2" d="M406.81,344.69a56.45,56.45,0,1,0,56.45,56.45A56.45,56.45,0,0,0,406.81,344.69Zm0,106.42a50,50,0,1,1,50-50A50,50,0,0,1,406.81,451.11Z"/><path class="cls-1" d="M507.74,486.26,343.2,318.17s-16.17-16-31.55-22.08c0,0-3.8,52.28,92.6,148.57l10.57-10.35,3.57,3.65,3.93-3.84s27.47,34.54,39.35,42.35c3.93,2.59,12.83,5.06,15.39,8,2,2.37-2.26,11.42,2.32,15.77a15.86,15.86,0,0,0,10.11,4.49c5.57.55,10.49-.55,13.52-3.52S508,495.74,507.74,486.26Zm-19.18,13.18a3.35,3.35,0,1,1,3.68-3A3.35,3.35,0,0,1,488.56,499.44Z"/></svg>